<svg width="16" height="10" viewBox="0 0 16 10" fill="none" xmlns="http://www.w3.org/2000/svg">
<path d="M8 0.764709C2.75149 0.764709 0 4.63166 0 5.24471C0 5.85793 2.75149 9.72471 8 9.72471C13.2482 9.72471 16 5.85793 16 5.24471C16 4.63166 13.2482 0.764709 8 0.764709ZM8 8.69094C6.03638 8.69094 4.44429 7.14804 4.44429 5.24471C4.44429 3.34138 6.03638 1.79848 8 1.79848C9.96362 1.79848 11.5555 3.34138 11.5555 5.24471C11.5555 7.14804 9.96362 8.69094 8 8.69094ZM9.77768 5.24471C9.77768 6.19629 8.98156 6.96799 8 6.96799C7.01811 6.96799 6.22232 6.19629 6.22232 5.24471C6.22232 4.29313 7.01811 3.52159 8 3.52159C8.53053 3.52159 7.67444 4.88715 8 5.24471C8.27672 5.54837 9.77768 4.80766 9.77768 5.24471Z" fill="#5D6978"/>
</svg>
